<svg height='300px' width='300px'  fill="#000000" xmlns="http://www.w3.org/2000/svg" xmlns:xlink="http://www.w3.org/1999/xlink" version="1.1" x="0px" y="0px" viewBox="0 0 100 100" style="enable-background:new 0 0 100 100;" xml:space="preserve"><g><path d="M92.5,20.8c-0.6-5.3-2.6-10-6.9-13.6c-3.8-3.2-15.5-3.3-19.1,1c-4.4,5.4-4.7,11.4-4.8,18.2c0,3.9,3.6,7.9,5,11.4   c0.9,2.1,2.8,3.9,2.6,6.2c-2.9,31.5-26,41-29.5,42.3c-1.1,0.4-10.9,2.4-11.3,1c-0.9-2.4-2.1-5.1-3.9-6.6   c-7.6-6.7-15.3-4.5-18.4,1.7c-1.4,2.8,0.4,9.2,4.2,10.9c2.7,1.2,6.4,2,9.4,1.9c2.8-0.1,4.6-1.7,6.6-3.8c0.3-0.4,1.1-0.6,1.6-0.6   c2.2,0.1,4.3,0.5,6.5,0.5c3.2-0.1,6.4-0.2,9.5-0.9c3.1-0.6,6-1.8,8.9-2.9c1-0.4,1.9-1.3,2.8-1.9c0.6-0.4,1.2-0.7,1.8-1   c0.7-0.3,1.4-0.5,2.1-0.9c1-0.6,2-1.3,3-2c2.8-2,5.9-3.6,8.3-5.9c3.4-3.2,5.6-5.7,8.2-9.6c2-3.2,4.4-7.9,6.1-11.2   c3.2-6.2,6.1-12.1,7.6-19C93.8,31.2,93,25.6,92.5,20.8z M22.5,89.6c-0.2,1-2.9,2.1-3.3,2.4c-1.6,0.9-2.8,0.4-3.1-1.5   c-0.2-0.9-0.1-2.1-1.3-2c0.2,0.6-0.8,0.8-0.6,1.9c-0.6-0.4-8.3-1.2-3.1-8.1c1.5-2,6.7-2.6,9.2-0.9C22.2,82.7,23.1,87.3,22.5,89.6z    M73.3,14.6 M86.8,40.4c-0.4,1.3-1.5,1.8-2.7,1.6c-2-0.4-1.9,0-4.1-1.3c-0.4-0.2-1.5-3.7-1.6-4.2c-0.6-1.8-1.8,1.6-2.1,1.6   c-1.5,0.4-4-3-4.8-4.3c-2-3-2.5-12-1.9-14.4c2-7.9,5.7-8.3,7.7-8.3c1.5,0,3.8-0.7,5.3,0.4c1.8,1.5,3.6,3.3,4.5,5.5   C88.4,20.2,90.4,29.2,86.8,40.4z"></path></g></svg>