<?xml version="1.0" encoding="UTF-8"?>
<svg enable-background="new 0 0 235.517 235.517" version="1.1" viewBox="0 0 235.52 235.52" xml:space="preserve" xmlns="http://www.w3.org/2000/svg" xmlns:cc="http://creativecommons.org/ns#" xmlns:dc="http://purl.org/dc/elements/1.1/" xmlns:rdf="http://www.w3.org/1999/02/22-rdf-syntax-ns#"><metadata><rdf:RDF><cc:Work rdf:about=""><dc:format>image/svg+xml</dc:format><dc:type rdf:resource="http://purl.org/dc/dcmitype/StillImage"/><dc:title/></cc:Work></rdf:RDF></metadata>
<g fill="#fff">
	<path d="m118.1 235.52c7.898 0 14.31-6.032 14.31-13.483v-13.473c39.069-3.579 64.932-24.215 64.932-57.785v-0.549c0-34.119-22.012-49.8-65.758-59.977v-31.916c6.298 1.539 12.82 3.72 19.194 6.549 10.258 4.547 22.724 1.697 28.952-8.485 6.233-10.176 2.866-24.47-8.681-29.654-11.498-5.156-24.117-8.708-38.095-10.236v-8.257c0-4.552-6.402-8.251-14.305-8.251s-14.31 3.514-14.31 7.832v7.843c-42.104 3.03-65.764 25.591-65.764 58.057v0.555c0 34.114 22.561 49.256 66.862 59.427v33.021c-10.628-1.713-21.033-5.243-31.623-10.65-11.281-5.755-25.101-3.72-31.938 6.385-6.842 10.1-4.079 24.449 7.294 30.029 16.709 8.208 35.593 13.57 54.614 15.518v13.755c6e-3 7.588 6.413 13.745 14.316 13.745zm13.201-97.397c14.316 4.123 18.438 8.257 18.438 15.681v0.555c0 7.979-5.776 12.651-18.438 14.033zm-44.302-67.967v-0.549c0-7.152 5.232-12.657 18.71-13.755v29.719c-14.853-4.129-18.71-8.263-18.71-15.415z" fill="#fff"/>
</g>















</svg>
