<?xml version="1.0" encoding="UTF-8"?>
<svg enable-background="new 596.9167 0.0194 1565.0834 1639.8086" version="1.1" viewBox="596.92 .0194 1565.1 1639.8" xml:space="preserve" xmlns="http://www.w3.org/2000/svg" xmlns:cc="http://creativecommons.org/ns#" xmlns:dc="http://purl.org/dc/elements/1.1/" xmlns:rdf="http://www.w3.org/1999/02/22-rdf-syntax-ns#"><metadata><rdf:RDF><cc:Work rdf:about=""><dc:format>image/svg+xml</dc:format><dc:type rdf:resource="http://purl.org/dc/dcmitype/StillImage"/><dc:title/></cc:Work></rdf:RDF></metadata>
<path d="m1520.6 60.725c9.2529 0 22.9-2.2927 31.023 1.2784 4.0228 1.7685 10.09 1.592 14.476 2.7188 5.8456 1.5018 11.685 2.95 17.423 4.8376 19.831 6.524 38.454 17.596 54.307 31.119 15.487 13.211 28.811 28.882 38.565 46.791 10.313 18.935 15.656 39.202 20.942 59.935 5.438 21.331 6.3975 44.45 6.5536 66.378 0.1575 22.094-1.3568 45.118-6.2789 66.643-4.7166 20.626-9.5502 40.627-17.273 60.422-8.1235 20.822-19.252 40.622-29.217 60.594-9.6312 19.304-18.846 38.775-28.172 58.222-9.0332 18.838-17.955 38.783-24.128 58.77-6.0906 19.72-11.492 40.319-10.548 61.155 0.3005 6.6298 1.0413 21.013 7.0928 25.293 3.0446 2.1529 8.7776 0.9438 12.213 0.8727 6.3768-0.1321 12.75-0.3911 19.122-0.6643 46.156-1.9804 92.468-1.7981 138.66-1.7421 45.614 0.0554 91.168 0.327 136.71 3.2466 22.506 1.4431 45.473 2.3863 67.766 5.9072 20.108 3.1758 39.548 8.5963 55.7 21.558 15.696 12.596 29.253 29.27 40.939 45.546 11.875 16.54 23.23 34.922 30.153 54.157 3.2183 8.9421 6.8928 18.638 7.8779 28.133 1.1016 10.62-0.9648 19.258-6.2202 28.481-10.132 17.78-24.421 32.933-35.489 50.126-5.583 8.6729-9.6936 17.282-8.1272 27.856 1.5747 10.629 6.9783 20.636 12.171 29.892 9.8293 17.52 21.52 34.124 30.47 52.127 4.1145 8.2762 7.9856 17.604 7.1602 27.031-0.873 9.9706-6.8962 18.98-12.748 26.779-12.396 16.518-27.395 30.906-39.722 47.482-5.7537 7.7368-11.442 16.168-11.772 26.148-0.349 10.58 2.4435 20.917 6.0121 30.783 7.3593 20.346 17.403 40.346 23.222 61.171 6.0962 21.818-0.4746 39.715-13.589 57.382-12.593 16.965-28.891 30.979-43.836 45.787-14.408 14.275-27.153 28.667-27.001 50.026 0.078 10.965 0.1594 21.929 0.2654 32.894 0.1068 11.05 1.4434 22.939-1.6632 33.7-5.4886 19.013-21.404 36.128-34.736 50.115-14.459 15.169-30.637 28.789-47.772 40.833-17.229 12.11-34.815 20.514-55.194 25.638-20.921 5.2599-42.941 7.8329-64.431 9.6827-90.568 7.7957-181.67 2.4065-272.32-0.8159-44.748-1.5908-89.675-4.4669-134.24-8.8455-10.273-1.0093-20.537-1.4325-30.82-2.1771-10.144-0.7345-20.514-3.3689-30.521-5.2036-21.053-3.8597-42.129-7.6986-63.138-11.787-42.794-8.328-85.759-15.862-128.62-23.852-21.616-4.0298-43.25-7.9535-64.874-11.94-10.516-1.9385-21.033-3.881-31.521-5.9642-3.2131-0.6381-6.5777-1.077-7.1765-4.8949-0.9216-5.8757-0.113-12.464-0.1102-18.409 0.09-185.77 0.086-371.54 0.087-557.31 1e-4 -11.146 1e-4 -22.292 2e-4 -33.438 0-2.7115-0.8728-7.2691 0.6964-9.6804 1.8351-2.8201 9.785-1.3683 12.482-1.3834 9.8492-0.0552 19.896 0.8073 29.609-1.1854 9.9312-2.0372 19.052-6.6622 27.528-12.107 34.091-21.897 59.651-57.769 81.01-91.489 23.28-36.752 43.928-75.44 62.133-114.94 18.337-39.788 34.385-80.533 51.876-120.7 17.025-39.092 48.256-65.273 80.858-91.255 16.483-13.136 32.667-26.548 46.319-42.7 13.802-16.329 24.984-34.827 33.762-54.296 18.117-40.186 30.142-84.312 36.223-127.97 6.2136-44.612 12.6-89.2 14.966-134.25 0.3915-7.4563 1.6073-14.582 7.3704-19.875 2.4473-2.2476 5.3876-3.8947 8.4872-5.0599 2.4169-0.908 7.7498-1.0113 9.0349-3.5838 9.8713 0-0.7906 1.5825 0 0zm-866.4 837.54v340.53 139.56 69.781 36.286 16.748c2.9518 0.6001 3.0689 7.4297 3.9023 9.6901 5.8673 15.911 20.754 29.584 36.645 35.102 9.34 3.2439 18.812 3.2965 28.58 3.3029 11.044 0.01 22.088 0.012 33.132 0.014 46.016 0.011 92.033-0.01 138.05 0.01 19.081 0.01 36.95-6.9194 49.56-21.655 13.441-15.707 14.567-34.699 14.562-54.456-0.012-46.62-0.0196-93.241-0.025-139.86-0.0109-93.241-0.0132-186.48-0.0248-279.72-6e-3 -46.373 1.1533-92.918-0.0865-139.27-0.53421-19.973-7.4376-38.352-23.344-51.113-15.416-12.368-33.584-13.338-52.507-13.38-46.4-0.1041-92.8-0.1375-139.2-6e-3 -20.994 0.0595-42.73-1.9652-61.138 10.065-7.4174 4.8474-13.948 11.045-18.711 18.548-2.1867 3.4451-3.9904 7.1271-5.4059 10.953-0.7574 2.0468-1.295 8.4087-3.9883 8.8697 0 200.97 1.5781-0.2702 0 0z" fill="#fff"/>
</svg>
