<?xml version="1.0" encoding="UTF-8"?>
<svg width="24" height="24" version="1.1" viewBox="0 0 24 24" xmlns="http://www.w3.org/2000/svg" xmlns:cc="http://creativecommons.org/ns#" xmlns:dc="http://purl.org/dc/elements/1.1/" xmlns:rdf="http://www.w3.org/1999/02/22-rdf-syntax-ns#">
 <metadata>
  <rdf:RDF>
   <cc:Work rdf:about="">
    <dc:format>image/svg+xml</dc:format>
    <dc:type rdf:resource="http://purl.org/dc/dcmitype/StillImage"/>
    <dc:title/>
   </cc:Work>
  </rdf:RDF>
 </metadata>
 <path d="m12 2c5.514 0 10 4.486 10 10s-4.486 10-10 10-10-4.486-10-10 4.486-10 10-10zm0-2c-6.627 0-12 5.373-12 12s5.373 12 12 12 12-5.373 12-12-5.373-12-12-12zm5.507 13.941c-1.512 1.195-3.174 1.931-5.506 1.931-2.334 0-3.996-0.736-5.508-1.931l-0.493 0.493c1.127 1.72 3.2 3.566 6.001 3.566 2.8 0 4.872-1.846 5.999-3.566zm-9.007-5.941c-0.828 0-1.5 0.671-1.5 1.5s0.672 1.5 1.5 1.5 1.5-0.671 1.5-1.5-0.672-1.5-1.5-1.5zm7 0c-0.828 0-1.5 0.671-1.5 1.5s0.672 1.5 1.5 1.5 1.5-0.671 1.5-1.5-0.672-1.5-1.5-1.5z" fill="#fff"/>
</svg>
